<svg xmlns="http://www.w3.org/2000/svg" viewBox="0 0 11.34 21.34"><title>life</title><g id="Layer_2" data-name="Layer 2"><g id="editable_text" data-name="editable text"><path d="M5.19,16.52v4.34a.48.48,0,0,0,.47.48h0a.48.48,0,0,0,.47-.48V16.52a3.44,3.44,0,0,1-.46,0A4.07,4.07,0,0,1,5.19,16.52Z"/><path d="M6,.15a.56.56,0,0,0-.74,0A14.23,14.23,0,0,0,0,10.6a5.8,5.8,0,0,0,5.19,5.92V13.61L3.35,12.32a.43.43,0,0,1-.11-.6.44.44,0,0,1,.61-.11l1.34,1V10.69L3.35,9.4a.43.43,0,1,1,.5-.71l1.34.94V7.76L3.35,6.47a.43.43,0,0,1-.11-.6.44.44,0,0,1,.61-.11l1.34,1V3.35a.47.47,0,0,1,.47-.47h0a.47.47,0,0,1,.47.47V6.71l1.34-1a.44.44,0,0,1,.61.11.43.43,0,0,1-.11.6L6.15,7.76V9.63l1.34-.94A.43.43,0,1,1,8,9.4L6.15,10.69v1.87l1.34-1a.44.44,0,0,1,.61.11.43.43,0,0,1-.11.6L6.15,13.61v2.91a5.66,5.66,0,0,0,5.19-5.64C11.34,5.39,7.28,1.28,6,.15Z"/></g></g></svg>