<?xml version="1.0" encoding="UTF-8"?>
<svg width="29px" height="38px" viewBox="0 0 29 38" version="1.1" xmlns="http://www.w3.org/2000/svg" xmlns:xlink="http://www.w3.org/1999/xlink">
    <!-- Generator: Sketch 50.2 (55047) - http://www.bohemiancoding.com/sketch -->
    <title>icons/products/life</title>
    <desc>Created with Sketch.</desc>
    <defs></defs>
    <g id="Icons" stroke="none" stroke-width="1" fill="none" fill-rule="evenodd">
        <g id="icons" transform="translate(-560.000000, -375.000000)" fill="#FFFFFF">
            <g id="icons/products/life" transform="translate(560.000000, 375.000000)">
                <path d="M27.7917427,6.76154028 L27.7917427,9.24280652 C27.7917427,13.1801559 24.5447794,16.3742027 20.542199,16.3742027 L18.1256844,16.3742027 L18.1256844,13.8947319 C18.1256844,9.95379164 21.3708226,6.76154028 25.3752281,6.76154028 L27.7917427,6.76154028 Z M1.20825728,6.76154028 L3.62477185,6.76154028 C7.62917742,6.76154028 10.8743156,9.95379164 10.8743156,13.8947319 L10.8743156,16.3742027 L8.45780099,16.3742027 C4.45339543,16.3742027 1.20825728,13.1801559 1.20825728,9.24280652 L1.20825728,6.76154028 Z M2.41651457,27.1879991 L26.5834854,27.1879991 L24.3750393,37.0681786 C24.2527535,37.6139854 23.7617849,38 23.1941595,38 L5.80584052,38 C5.23821512,38 4.74724652,37.6139854 4.62496066,37.0681786 L2.41651457,27.1879991 Z M0.604128642,21.1787385 L28.3958714,21.1787385 C28.729876,21.1787385 29,21.4462556 29,21.7730215 L29,25.3907867 C29,25.7211434 28.729876,25.9850697 28.3958714,25.9850697 L0.604128642,25.9850697 C0.270123985,25.9850697 0,25.7211434 0,25.3907867 L0,21.7730215 C0,21.4462556 0.270123985,21.1787385 0.604128642,21.1787385 Z M15.7073447,12.2968108 L15.7073447,18.7764706 L13.2926553,18.7764706 L13.2926553,12.3704229 L12.7542325,11.8407749 C9.92158097,9.05608316 9.92158097,4.5406095 12.7542325,1.75591779 L14.5374158,0 L16.2457675,1.68230569 C19.0765939,4.46879282 19.0765939,8.98247106 16.2457675,11.7671628 L15.7073447,12.2968108 Z"></path>
            </g>
        </g>
    </g>
</svg>